Coordinates
version=1
nRows=13
nColumns=30
inDegrees=yes

Units are S.I. units (second, meters, Newtons, ...)
Angles are in degrees.

endheader
time	floatyaw	floatroll	floatpitch	floatx	floaty	floatz	pro_sup_l	deviation_l	flexion_l	cmc_flexion_l	cmc_abduction_l	mp_flexion_l	ip_flexion_l	2mcp_flexion_l	2mcp_abduction_l	2pm_flexion_l	2md_flexion_l	3mcp_flexion_l	3mcp_abduction_l	3pm_flexion_l	3md_flexion_l	4mcp_flexion_l	4mcp_abduction_l	4pm_flexion_l	4md_flexion_l	5mcp_flexion_l	5mcp_abduction_l	5pm_flexion_l	5md_flexion_l
0.005000	-160.147433	-5.066637	-73.570646	-0.066466	-0.127937	-0.118622	20.081791	-24.854317	-1.138022	23.750920	-19.390311	-22.502561	-48.078684	42.950538	15.545744	47.921409	39.075369	52.781772	6.194990	46.105921	30.789252	36.233798	-6.688991	56.715686	41.756425	-1.337937	-12.810854	74.645390	56.904929
0.015000	-160.147433	-5.066637	-73.570646	-0.065802	-0.124223	-0.118785	19.059238	-24.293818	-1.531970	21.656743	-20.705303	-22.129093	-47.041088	44.373170	15.852873	46.886631	39.681303	54.538729	6.332388	46.125022	31.236658	37.633691	-6.780798	56.670114	42.696743	-1.384717	-12.731275	75.282822	57.692777
0.025000	-160.147433	-5.066637	-73.570646	-0.064712	-0.120923	-0.118574	18.144142	-23.346057	-1.679812	19.555290	-22.016630	-21.566950	-45.753764	44.547626	15.681438	45.514330	39.932123	54.847746	6.399692	45.641906	31.545121	38.244083	-6.777258	55.868584	43.359468	-1.383008	-12.489149	75.235684	57.762605
0.035000	-160.147433	-5.066637	-73.570646	-0.063601	-0.118225	-0.118272	17.386350	-22.382408	-1.612144	17.705939	-23.284291	-20.956581	-44.625053	43.968245	15.288189	44.176402	40.024515	54.361072	6.433208	44.853646	31.749448	38.325353	-6.742300	54.757765	43.868367	-1.410281	-12.213108	74.820987	57.412681
0.045000	-160.147433	-5.066637	-73.570646	-0.062718	-0.116254	-0.118054	16.842292	-21.657741	-1.423915	16.266573	-24.394137	-20.444176	-43.946570	43.135254	14.909127	43.176428	40.130252	53.675988	6.453774	44.014755	31.898982	38.147282	-6.725011	53.752060	44.320796	-1.497360	-11.991168	74.331564	56.922362
0.055000	-160.147433	-5.066637	-73.570646	-0.062141	-0.115048	-0.117978	16.520611	-21.252933	-1.222105	15.283830	-25.236849	-20.089090	-43.760543	42.392334	14.684951	42.638366	40.318053	53.153009	6.465771	43.326778	32.021925	37.904813	-6.744572	53.100984	44.744031	-1.643016	-11.854452	73.967381	56.475319
0.065000	-160.147433	-5.066637	-73.570646	-0.061816	-0.114541	-0.118025	16.372768	-21.096510	-1.086785	14.709831	-25.775632	-19.853600	-43.887209	41.885214	14.641777	42.494948	40.545034	52.892890	6.463902	42.877842	32.115550	37.700616	-6.791260	52.852107	45.102023	-1.824688	-11.789194	73.811951	56.140912
0.075000	-160.147433	-5.066637	-73.570646	-0.061628	-0.114568	-0.118142	16.321500	-21.044048	-1.053146	14.436904	-26.058492	-19.659763	-44.067049	41.606586	14.721236	42.568504	40.712520	52.822967	6.442393	42.650046	32.161959	37.567855	-6.839757	52.901964	45.337773	-2.008480	-11.763771	73.848217	55.903308
0.085000	-160.147433	-5.066637	-73.570646	-0.061478	-0.114906	-0.118282	16.298776	-20.967512	-1.112582	14.340518	-26.180940	-19.455344	-44.111293	41.474063	14.834511	42.681726	40.741084	52.814803	6.401475	42.569387	32.150846	37.501746	-6.866120	53.089054	45.419119	-2.161983	-11.752780	74.000243	55.711850
0.095000	-160.147433	-5.066637	-73.570646	-0.061316	-0.115337	-0.118412	16.268524	-20.809976	-1.227556	14.316641	-26.235021	-19.242656	-43.975742	41.399024	14.910841	42.732425	40.616532	52.772265	6.348399	42.557962	32.090719	37.483330	-6.859649	53.275853	45.360375	-2.266339	-11.746850	74.180894	55.524639
0.105000	-160.147433	-5.066637	-73.570646	-0.061144	-0.115696	-0.118514	16.226612	-20.588665	-1.351875	14.301185	-26.276707	-19.062447	-43.738113	41.324406	14.921257	42.705780	40.387413	52.664666	6.293736	42.562620	32.003443	37.491709	-6.825279	53.388797	45.212573	-2.321829	-11.748276	74.326149	55.328744
0.115000	-160.147433	-5.066637	-73.570646	-0.060987	-0.115907	-0.118579	16.186078	-20.359965	-1.447368	14.269041	-26.322148	-18.955346	-43.517112	41.229721	14.875263	42.640621	40.128161	52.512612	6.246300	42.558062	31.910243	37.507299	-6.777838	53.415906	45.035280	-2.345017	-11.760656	74.406692	55.136574
0.125000	-160.147433	-5.066637	-73.570646	-0.060864	-0.115977	-0.118604	16.160950	-20.175455	-1.492256	14.220644	-26.364236	-18.930728	-43.393113	41.116345	14.801551	42.584427	39.897753	52.353054	6.210055	42.536708	31.821049	37.511681	-6.733205	53.381208	44.870236	-2.359645	-11.781578	74.420950	54.969249
